<?xml version="1.0" encoding="UTF-8"?>
<!DOCTYPE svg PUBLIC "-//W3C//DTD SVG 1.1//EN" "http://www.w3.org/Graphics/SVG/1.1/DTD/svg11.dtd">
<!-- Creator: CorelDRAW X7 -->
<svg xmlns="http://www.w3.org/2000/svg" xml:space="preserve" width="70.0016mm" height="30mm" version="1.1" style="shape-rendering:geometricPrecision; text-rendering:geometricPrecision; image-rendering:optimizeQuality; fill-rule:evenodd; clip-rule:evenodd"
viewBox="0 0 7000 3000"
 xmlns:xlink="http://www.w3.org/1999/xlink">
 <defs>
  <style type="text/css">
   <![CDATA[
    .fil1 {fill:#364164}
    .fil0 {fill:#364164;fill-rule:nonzero}
   ]]>
  </style>
 </defs>
 <g id="РЎР_x00bb_РѕР_x2116__x0020_1">
  <metadata id="CorelCorpID_0Corel-Layer"/>
  <g id="_817940497296">
   <g>
    <path class="fil0" d="M6858 1282c-40,-1 -69,50 -70,78 0,25 14,223 -214,220 -56,-1 -135,-29 -196,-99 86,-117 142,-297 146,-545 2,-131 -10,-380 -268,-384 -195,-3 -390,134 -394,373 -2,132 72,238 212,241 35,0 92,-8 136,-42 -14,69 -15,250 62,388 -55,52 -126,84 -213,82 -62,-1 -160,-48 -134,-211 4,-37 -18,-76 -80,-77 -23,0 -43,12 -53,48 -25,41 -66,133 -166,132 -349,-6 -89,-566 -453,-572 -84,-1 -268,68 -270,184 -1,30 24,67 80,68 63,1 75,-176 199,-174 109,1 136,92 148,204 -89,-28 -396,2 -437,209 -26,30 -77,80 -175,78 -268,-4 -7,-457 -144,-459 -41,-1 -88,84 -100,178 -128,84 -231,51 -278,26 -19,-83 -62,-192 -132,-193 -41,0 -43,38 -43,52 0,6 21,37 40,91 -13,57 -104,286 -330,283 -70,-2 -133,-36 -168,-97 81,-113 134,-260 137,-431 1,-69 -55,-220 -184,-222 -134,-2 -352,102 -356,312 -1,80 50,169 166,170 30,1 61,-7 99,-30 -8,42 -36,173 -1,282 -68,57 -154,94 -261,92 -82,-1 -210,-52 -208,-168 0,-42 42,-152 -40,-153 -42,-1 -81,28 -99,74 -66,27 -182,57 -305,-23 -21,-11 -56,18 -27,42 18,13 52,38 51,82 0,29 -43,44 -66,44 -18,0 -74,-5 -119,-60 80,-96 133,-218 136,-363 0,-38 -36,-102 -96,-103 -90,-1 -206,169 -208,327 -1,38 4,107 31,173 -70,39 -157,64 -264,63 -104,-2 -611,-67 -417,-842 116,43 236,74 365,76 98,2 398,-12 402,-238 1,-80 -47,-157 -116,-158 -52,-1 -66,33 -66,52 -2,84 112,31 111,91 0,35 -12,129 -165,127 -456,-8 -979,-435 -1485,-443 -127,-2 -476,71 -482,427 -1,106 77,339 377,344 145,2 389,-102 392,-268 0,-24 -9,-72 -59,-72 -143,-3 -18,271 -355,265 -53,0 -250,-46 -247,-267 2,-77 102,-273 369,-268 193,3 364,64 528,138 91,283 32,1069 -537,1060 -79,-1 -326,-73 -323,-252 1,-63 73,-75 74,-157 1,-55 -25,-120 -118,-122 -62,-1 -126,57 -128,184 -2,132 72,420 446,426 478,8 812,-388 702,-1085 82,39 163,79 246,113 -111,222 -258,1026 333,1035 141,2 315,-54 454,-164 39,52 101,91 198,93 45,0 161,-35 162,-140 1,-26 -16,-69 -35,-82 36,19 152,44 229,3 0,1 0,1 0,1 -1,91 56,239 356,244 97,2 196,-35 282,-102 36,68 106,120 234,122 67,1 273,-40 409,-322 6,56 2,123 -18,199 -7,27 4,69 59,70 34,1 97,-28 80,-262 121,46 222,11 265,-10 1,101 21,259 214,262 69,1 150,-21 206,-71 8,58 43,141 158,143 72,1 212,-56 299,-231 16,124 57,230 204,232 42,1 158,-24 236,-173 11,79 61,194 268,197 91,2 176,-27 248,-87 55,71 139,123 263,125 140,2 359,-57 363,-293 1,-47 -5,-109 -72,-110zm-4472 -310l0 0c72,2 66,204 -67,351 -19,-44 -32,-105 -31,-191 1,-45 38,-161 98,-160zm1016 98l0 0c-23,0 -33,-27 -33,-61 1,-26 51,-189 172,-187 96,2 109,269 -2,476 -3,-18 -5,-36 -5,-57 1,-68 3,-168 -132,-171zm1705 432l0 0c-40,-1 -69,-35 -69,-77 2,-89 69,-227 296,-188 3,29 5,59 7,88 -29,53 -119,179 -234,177zm1218 -517l0 0c11,-31 -19,-51 -27,-37 -10,14 -53,103 -115,102 -49,-1 -129,-36 -127,-145 1,-79 36,-275 218,-272 72,1 200,26 196,302 -2,134 -35,346 -129,493 -52,-92 -73,-234 -16,-443z"/>
    <g>
     <path class="fil1" d="M927 2138c0,-37 38,-252 249,-249 335,5 187,496 269,497 1,-39 185,-524 422,-520 127,2 163,63 162,134 -1,58 -47,86 -78,86 -32,-1 -79,-22 -65,-99 -350,-5 -375,574 -475,573 -161,-3 -5,-533 -279,-537 -53,-1 -111,16 -112,88 11,121 -94,101 -93,27z"/>
     <path class="fil1" d="M1523 2282c202,-89 298,187 458,189 64,1 178,-92 206,-165 4,82 -113,312 -290,309 -261,-4 -202,-349 -405,-267 12,-40 31,-66 31,-66z"/>
     <path class="fil1" d="M2254 2088c-58,-1 -107,72 -94,279 4,73 44,187 163,189 76,1 180,-45 269,-186 20,-73 5,-114 -9,-90 -14,27 -101,199 -230,197 -168,-2 35,-387 -99,-389z"/>
     <path class="fil1" d="M2635 2189c-51,-1 -70,83 -72,170 -1,85 13,201 161,203 68,1 177,-65 240,-204 14,-50 -15,-74 -26,-43 -11,32 -97,173 -175,171 -152,-2 11,-295 -128,-297z"/>
     <path class="fil1" d="M3403 1777c-121,-2 -476,98 -484,603 -4,214 146,430 468,435 100,2 412,-67 504,-395 7,-84 -22,-124 -33,-85 -11,40 -90,384 -409,379 -129,-2 -353,-46 -347,-399 1,-81 2,-435 312,-480 99,-9 129,79 129,110 -1,32 -91,62 -92,128 -1,53 12,77 54,77 42,1 127,-24 129,-169 2,-105 -75,-202 -231,-204z"/>
     <path class="fil1" d="M3926 2210c-103,-2 -71,233 20,372 26,27 64,14 85,1 21,-15 74,-181 159,-200 -2,79 50,151 124,152 81,1 197,-216 258,-207 -1,56 -28,305 164,309 88,1 234,-107 296,-188 -2,-58 -12,-77 -38,-60 -27,32 -113,129 -211,127 -174,-3 16,-292 -169,-295 -82,-2 -193,183 -264,181 -42,0 16,-148 -90,-150 -47,-1 -189,142 -233,224 -65,-59 26,-264 -101,-266z"/>
     <path class="fil1" d="M5115 2028c-55,-1 -155,153 -157,293 -2,85 -11,343 266,347 106,2 159,-90 161,-170 1,-99 -43,-266 -126,-198 -44,35 51,68 49,197 0,22 -19,77 -70,76 -23,0 -147,2 -143,-253 2,-147 157,-289 20,-292z"/>
     <g>
      <path class="fil0" d="M5333 2378c-26,0 -49,-7 -71,-21 -17,-11 -21,-34 -10,-51 12,-17 35,-22 52,-10 45,31 160,-32 252,-82 93,-50 180,-97 252,-96 99,1 147,66 152,129 4,58 -28,107 -74,114 -20,3 -39,-11 -42,-31 -3,-20 11,-39 31,-42 3,0 13,-13 11,-36 -1,-18 -11,-59 -79,-61 -53,0 -136,45 -216,88 -94,51 -184,100 -258,99z"/>
     </g>
    </g>
   </g>
  </g>
 </g>
</svg>
